Coordinates
version=1
nRows=5
nColumns=40
inDegrees=yes

Units are S.I. units (second, meters, Newtons, ...)
If the header above contains a line with 'inDegrees', this indicates whether rotational values are in degrees (yes) or radians (no).

endheader
time	pelvis_tilt	pelvis_list	pelvis_rotation	pelvis_tx	pelvis_ty	pelvis_tz	hip_flexion_r	hip_adduction_r	hip_rotation_r	knee_angle_r	knee_angle_r_beta	ankle_angle_r	subtalar_angle_r	mtp_angle_r	hip_flexion_l	hip_adduction_l	hip_rotation_l	knee_angle_l	knee_angle_l_beta	ankle_angle_l	subtalar_angle_l	mtp_angle_l	lumbar_extension	lumbar_bending	lumbar_rotation	arm_flex_r	arm_add_r	arm_rot_r	elbow_flex_r	pro_sup_r	wrist_flex_r	wrist_dev_r	arm_flex_l	arm_add_l	arm_rot_l	elbow_flex_l	pro_sup_l	wrist_flex_l	wrist_dev_l
      0.00000000	      3.41993972	     -3.50615361	      2.93396130	     -0.18705676	      1.09840800	      0.04080557	     55.75758333	     -8.86288689	     -0.89878040	    103.79470613	      1.81155937	     -7.04988822	    -27.96758882	      0.00000000	     40.25855357	     -7.99261718	      5.44651965	     41.41919957	      0.72290141	    -14.34869836	    -19.68410368	      0.00000000	    -62.04693088	      2.72929853	     -2.19850201	     89.10065909	     -3.32166409	     10.57529896	     34.01273727	      5.81980596	      0.00000000	      0.00000000	     88.85218411	    -24.31142743	     29.76230998	     55.93517308	     88.75468630	      0.00000000	      0.00000000
      0.00833333	      3.48155827	     -3.93768480	      3.00660956	     -0.18702766	      1.09823843	      0.04045108	     56.77924179	     -8.77286658	     -1.11226086	    104.95932911	      1.83188587	     -6.49555908	    -27.79227187	      0.00000000	     39.11771822	     -8.44930950	      5.50191816	     40.10091499	      0.69989300	    -15.08146203	    -19.02707476	      0.00000000	    -62.06321418	      3.12146566	     -1.82365447	     89.11657128	     -3.26878356	     10.50454539	     33.98950652	      5.72627100	      0.00000000	      0.00000000	     88.75033831	    -24.22390872	     29.59145010	     55.80761482	     88.75468977	      0.00000000	      0.00000000
      0.01666667	      3.48279737	     -4.28473888	      2.99028545	     -0.18707010	      1.09798116	      0.03999375	     57.88440621	     -8.69903886	     -1.21788300	    106.05488900	      1.85100700	     -5.87246739	    -27.57277089	      0.00000000	     38.04980670	     -8.90212946	      5.29511221	     38.85180140	      0.67809185	    -15.69817277	    -18.41072187	      0.00000000	    -62.01783147	      3.42157078	     -1.48448021	     89.16202399	     -3.21541659	     10.51354726	     33.93847552	      5.63584619	      0.00000000	      0.00000000	     88.63633987	    -24.14027517	     29.42831891	     55.66803186	     88.76142406	      0.00000000	      0.00000000
      0.02500000	      3.42709661	     -4.38256749	      2.82863877	     -0.18725646	      1.09762277	      0.03964052	     59.07811662	     -8.63065248	     -1.05629456	    107.07847115	      1.86887188	     -5.20926542	    -27.64965592	      0.00000000	     37.06013674	     -9.26869288	      4.64269847	     37.68355265	      0.65770207	    -16.45121570	    -17.80866587	      0.00000000	    -61.92453955	      3.46309453	     -1.36001323	     89.19409319	     -3.15280288	     10.54592418	     33.94643563	      6.08108902	      0.00000000	      0.00000000	     88.55449769	    -24.14458396	     29.48454812	     55.44783794	     88.81429925	      0.00000000	      0.00000000
      0.03333333	      3.36096677	     -4.69047756	      2.93831480	     -0.18730883	      1.09740854	      0.03915389	     60.19555384	     -8.70098144	     -1.25081110	    107.85706548	      1.88246091	     -4.77839459	    -27.69543227	      0.00000000	     36.21445531	     -9.52756794	      4.87918164	     36.70275407	      0.64058390	    -17.04272806	    -17.34402637	      0.00000000	    -61.82283622	      3.84311756	     -1.10903527	     89.20719345	     -3.13081686	     10.60709347	     33.87299801	      6.07695312	      0.00000000	      0.00000000	     88.47962258	    -24.17850792	     29.53322340	     55.42215326	     88.80104991	      0.00000000	      0.00000000
